<svg width="222" height="54" fill="none" xmlns="http://www.w3.org/2000/svg"><g clip-path="url(#clip0)" fill="#1D222A"><path d="M35.98 14.74l-5.12 17.2-5.33-17.2h-5.09c-1.42 0-2.69.95-3.08 2.32l-4.29 14.87-5.32-17.19H0l9.18 26.38h7.17l5.19-16.85 5.86 16.85h6.89l8.96-26.38h-7.27zM66.22 17.86c-1.08-1.21-2.4-2.15-3.93-2.79-1.52-.64-3.21-.96-5.03-.96-1.96 0-3.83.33-5.58.99-1.75.66-3.28 1.6-4.56 2.8-1.28 1.2-2.3 2.67-3.05 4.37-.75 1.7-1.13 3.61-1.13 5.68s.38 3.98 1.13 5.68c.75 1.69 1.77 3.16 3.05 4.37 1.27 1.2 2.81 2.15 4.56 2.8 1.74.65 3.62.98 5.58.98 2.07 0 4.08-.41 5.97-1.2 1.9-.8 3.64-2.17 5.17-4.06l.24-.3L65.7 34c-1.18-.89-2.84-.84-4.03.13-.38.31-.79.59-1.21.85-1.02.62-2.31.93-3.84.93-1.72 0-3.2-.51-4.41-1.52-1.11-.92-1.8-2.21-2.05-3.82h19.49v-2.14c0-2.27-.3-4.32-.9-6.08-.6-1.78-1.45-3.29-2.53-4.49zm-3.74 7.13H50.17c.28-1.56.91-2.84 1.88-3.79 1.04-1.03 2.49-1.55 4.3-1.55 1.92 0 3.43.51 4.49 1.53.99.94 1.54 2.22 1.64 3.81zM93.68 17.88c-.89-1.18-2-2.08-3.32-2.68-1.61-.73-3.37-1.1-5.23-1.1-2.04 0-3.88.36-5.47 1.08-1.59.71-2.97 1.7-4.1 2.95-1.13 1.24-2 2.72-2.59 4.4-.58 1.67-.88 3.49-.88 5.41 0 1.85.31 3.62.93 5.26.62 1.64 1.52 3.09 2.67 4.29 1.15 1.21 2.55 2.18 4.15 2.89 1.61.71 3.42 1.07 5.39 1.07 1.64 0 3.27-.32 4.84-.96 1.29-.53 2.39-1.28 3.28-2.24v.96c0 1.25-.13 2.39-.39 3.41-.25.99-.68 1.85-1.26 2.55-.58.7-1.38 1.25-2.36 1.66-1 .41-2.25.61-3.73.61-1.75 0-3.32-.31-4.65-.93-.61-.28-1.22-.62-1.81-1.01-1.45-.95-3.37-.62-4.39.75l-2.32 3.16.26.23c1.85 1.63 3.89 2.77 6.07 3.39 2.16.61 4.48.92 6.88.92 2.53 0 4.75-.37 6.6-1.09 1.86-.73 3.42-1.78 4.65-3.11 1.22-1.33 2.14-2.98 2.73-4.9.58-1.9.87-4.05.87-6.38V14.74h-3.63c-1.73 0-3.15 1.4-3.19 3.14zm0 9.89c0 1.02-.17 1.98-.51 2.86-.34.87-.82 1.63-1.44 2.25-.62.62-1.39 1.12-2.28 1.49-.89.37-1.91.56-3.03.56-1.02 0-1.97-.19-2.84-.56-.88-.37-1.64-.88-2.28-1.52a6.873 6.873 0 01-1.49-2.23 7.08 7.08 0 01-.53-2.74c0-1.09.18-2.09.53-2.99.35-.89.85-1.66 1.46-2.28.62-.62 1.38-1.11 2.25-1.47.88-.35 1.87-.53 2.96-.53 2.23 0 4.01.66 5.29 1.97 1.26 1.32 1.91 3.06 1.91 5.19zM127.6 17.89c-1.28-1.21-2.81-2.15-4.56-2.8-3.49-1.31-7.67-1.31-11.16 0-1.75.66-3.28 1.6-4.56 2.8-1.28 1.2-2.3 2.67-3.05 4.37-.75 1.7-1.13 3.61-1.13 5.68s.38 3.98 1.13 5.68c.75 1.69 1.77 3.16 3.05 4.37 1.28 1.2 2.81 2.15 4.56 2.8 1.74.65 3.62.98 5.58.98s3.84-.33 5.58-.99c1.75-.66 3.28-1.6 4.56-2.8 1.28-1.21 2.3-2.67 3.05-4.37.75-1.69 1.13-3.6 1.13-5.68 0-2.08-.38-3.98-1.13-5.68-.75-1.69-1.77-3.16-3.05-4.36zm-2.98 10.04c0 .95-.16 1.88-.49 2.75-.32.88-.8 1.66-1.42 2.33-.62.67-1.38 1.22-2.26 1.62-.87.4-1.88.61-2.99.61-1.12 0-2.12-.2-2.99-.61-.88-.4-1.64-.95-2.26-1.62-.62-.67-1.1-1.45-1.42-2.33-.32-.88-.48-1.8-.48-2.75s.16-1.88.49-2.76c.32-.87.79-1.66 1.42-2.33.62-.67 1.38-1.22 2.26-1.62.87-.4 1.88-.61 2.99-.61 1.11 0 2.12.2 2.99.61.88.4 1.63.95 2.26 1.62.62.67 1.1 1.46 1.42 2.33.32.89.48 1.81.48 2.76zM144.46 7.32h-3.95c-1.77 0-3.21 1.44-3.21 3.21v4.21h-2.08c-1.77 0-3.21 1.44-3.21 3.21v2.99h5.29v11.37c0 1.52.12 2.88.36 4.03.24 1.19.7 2.21 1.36 3.02.66.82 1.58 1.43 2.73 1.83 1.12.39 2.57.58 4.32.58.76 0 1.65-.06 2.64-.19 1.02-.13 1.89-.37 2.6-.7l.21-.1v-6.37l-.6.43c-.34.25-.83.43-1.45.55-.65.12-1.25.18-1.8.18-1.28 0-2.14-.32-2.54-.95-.44-.68-.66-1.64-.66-2.84V20.94h7.05v-6.2h-7.05V7.32h-.01zM174.76 3.21v14.32c-.23-.25-.48-.5-.76-.75-.52-.46-1.15-.9-1.89-1.3-.74-.41-1.59-.74-2.54-1-.96-.26-2.07-.39-3.3-.39-1.86 0-3.6.36-5.17 1.08-1.57.71-2.93 1.71-4.05 2.95-1.11 1.24-1.99 2.72-2.61 4.39-.62 1.67-.93 3.49-.93 5.42 0 1.92.29 3.74.88 5.41.58 1.68 1.45 3.16 2.59 4.4 1.13 1.24 2.51 2.23 4.1 2.95 1.59.71 3.43 1.08 5.47 1.08 1.86 0 3.62-.37 5.23-1.1 1.32-.6 2.43-1.5 3.32-2.68a3.212 3.212 0 003.21 3.14h3.63V0h-3.95c-1.79 0-3.23 1.44-3.23 3.21zm.21 24.72c0 .95-.16 1.88-.48 2.75-.32.88-.8 1.66-1.42 2.33-.62.67-1.38 1.22-2.26 1.62-.87.4-1.88.61-2.99.61-1.12 0-2.12-.2-2.99-.61-.88-.4-1.64-.95-2.26-1.62-.62-.67-1.1-1.45-1.42-2.33-.32-.88-.48-1.8-.48-2.75s.16-1.88.49-2.76c.32-.87.79-1.66 1.42-2.33.62-.67 1.38-1.22 2.26-1.62.87-.4 1.88-.61 2.99-.61 1.11 0 2.12.2 2.99.61.88.41 1.64.95 2.26 1.62.62.67 1.1 1.46 1.42 2.33.31.89.47 1.81.47 2.76zM190.41 2.19c-1.27 0-2.34.42-3.18 1.26-.83.84-1.26 1.83-1.26 2.96s.42 2.13 1.26 2.96c.83.83 1.9 1.26 3.18 1.26 1.27 0 2.35-.4 3.22-1.19.88-.8 1.32-1.82 1.32-3.03 0-1.21-.45-2.23-1.32-3.03-.87-.79-1.95-1.19-3.22-1.19zM186.89 17.95v23.17h7.16V14.74h-3.95c-1.77 0-3.21 1.44-3.21 3.21zM207.68 35.25l13.39-14.16v-6.35H202.7c-1.77 0-3.21 1.44-3.21 3.21v2.67h12.69l-13.33 14.06v6.45h22.86v-5.88h-14.03z"/></g><defs><clipPath id="clip0"><path fill="#fff" d="M0 0h221.71v53.94H0z"/></clipPath></defs></svg>